HIERARCHY
ROOT Hips
{
	OFFSET -14.64140 90.27770 -84.91600
	CHANNELS 6 Xposition Yposition Zposition Zrotation Xrotation Yrotation
	JOINT Spine
	{
		OFFSET 0.00000 13.20850 -1.60436
		CHANNELS 3 Zrotation Xrotation Yrotation
		JOINT Spine1
		{
			OFFSET 0.00000 8.61716 0.00000
			CHANNELS 3 Zrotation Xrotation Yrotation
			JOINT Spine2
			{
				OFFSET 0.00000 8.61717 0.00000
				CHANNELS 3 Zrotation Xrotation Yrotation
				JOINT Spine3
				{
					OFFSET 0.00000 8.61717 0.00000
					CHANNELS 3 Zrotation Xrotation Yrotation
					JOINT Neck
					{
						OFFSET 0.00000 11.07920 1.10792
						CHANNELS 3 Zrotation Xrotation Yrotation
						JOINT Neck1
						{
							OFFSET 0.00000 7.08032 0.00000
							CHANNELS 3 Zrotation Xrotation Yrotation
							JOINT Head
							{
								OFFSET 0.00000 7.08031 0.00000
								CHANNELS 3 Zrotation Xrotation Yrotation
								End site
								{
									OFFSET 0.00000 0.00000 0.00000
								}
							}
						}
					}
					JOINT RightShoulder
					{
						OFFSET -0.01000 7.91373 5.19711
						CHANNELS 3 Zrotation Xrotation Yrotation
						JOINT RightArm
						{
							OFFSET -18.41580 0.00000 0.00000
							CHANNELS 3 Zrotation Xrotation Yrotation
							JOINT RightForeArm
							{
								OFFSET -29.11090 0.00000 0.00000
								CHANNELS 3 Zrotation Xrotation Yrotation
								JOINT RightHand
								{
									OFFSET -24.65040 0.00000 0.00000
									CHANNELS 3 Zrotation Xrotation Yrotation
									JOINT RightHandThumb1
									{
										OFFSET -5.35114 -0.85590 3.97906
										CHANNELS 3 Zrotation Xrotation Yrotation
										JOINT RightHandThumb2
										{
											OFFSET -4.52789 0.00000 0.00000
											CHANNELS 3 Zrotation Xrotation Yrotation
											JOINT RightHandThumb3
											{
												OFFSET -2.46976 0.00000 0.00000
												CHANNELS 3 Zrotation Xrotation Yrotation
												End site
												{
													OFFSET 0.00000 0.00000 0.00000
												}
											}
										}
									}
									JOINT RightHandIndex1
									{
										OFFSET -14.26970 0.00000 2.88139
										CHANNELS 3 Zrotation Xrotation Yrotation
										JOINT RightHandIndex2
										{
											OFFSET -5.48836 0.00000 0.00000
											CHANNELS 3 Zrotation Xrotation Yrotation
											JOINT RightHandIndex3
											{
												OFFSET -3.01859 0.00000 0.00000
												CHANNELS 3 Zrotation Xrotation Yrotation
												End site
												{
													OFFSET 0.00000 0.00000 0.00000
												}
											}
										}
									}
									JOINT RightHandMiddle1
									{
										OFFSET -14.26970 0.00000 -0.09147
										CHANNELS 3 Zrotation Xrotation Yrotation
										JOINT RightHandMiddle2
										{
											OFFSET -6.17441 0.00000 0.00000
											CHANNELS 3 Zrotation Xrotation Yrotation
											JOINT RightHandMiddle3
											{
												OFFSET -3.56743 0.00000 0.00000
												CHANNELS 3 Zrotation Xrotation Yrotation
												End site
												{
													OFFSET 0.00000 0.00000 0.00000
												}
											}
										}
									}
									JOINT RightHandRing1
									{
										OFFSET -12.69180 0.00000 -3.06433
										CHANNELS 3 Zrotation Xrotation Yrotation
										JOINT RightHandRing2
										{
											OFFSET -5.62556 0.00000 0.00000
											CHANNELS 3 Zrotation Xrotation Yrotation
											JOINT RightHandRing3
											{
												OFFSET -3.56744 0.00000 0.00000
												CHANNELS 3 Zrotation Xrotation Yrotation
												End site
												{
													OFFSET 0.00000 0.00000 0.00000
												}
											}
										}
									}
									JOINT RightHandPinky1
									{
										OFFSET -11.11390 0.00000 -6.03719
										CHANNELS 3 Zrotation Xrotation Yrotation
										JOINT RightHandPinky2
										{
											OFFSET -4.52789 0.00000 0.00000
											CHANNELS 3 Zrotation Xrotation Yrotation
											JOINT RightHandPinky3
											{
												OFFSET -2.46976 0.00000 0.00000
												CHANNELS 3 Zrotation Xrotation Yrotation
												End site
												{
													OFFSET 0.00000 0.00000 0.00000
												}
											}
										}
									}
								}
							}
						}
					}
					JOINT LeftShoulder
					{
						OFFSET 0.01000 7.91373 5.19711
						CHANNELS 3 Zrotation Xrotation Yrotation
						JOINT LeftArm
						{
							OFFSET 18.41580 0.00000 0.00000
							CHANNELS 3 Zrotation Xrotation Yrotation
							JOINT LeftForeArm
							{
								OFFSET 29.11090 0.00000 0.00000
								CHANNELS 3 Zrotation Xrotation Yrotation
								JOINT LeftHand
								{
									OFFSET 24.65040 0.00000 0.00000
									CHANNELS 3 Zrotation Xrotation Yrotation
									JOINT LeftHandThumb1
									{
										OFFSET 5.35114 -0.85590 3.97906
										CHANNELS 3 Zrotation Xrotation Yrotation
										JOINT LeftHandThumb2
										{
											OFFSET 4.52789 0.00000 0.00000
											CHANNELS 3 Zrotation Xrotation Yrotation
											JOINT LeftHandThumb3
											{
												OFFSET 2.46977 0.00000 0.00000
												CHANNELS 3 Zrotation Xrotation Yrotation
												End site
												{
													OFFSET 0.00000 0.00000 0.00000
												}
											}
										}
									}
									JOINT LeftHandIndex1
									{
										OFFSET 14.26970 0.00000 2.88139
										CHANNELS 3 Zrotation Xrotation Yrotation
										JOINT LeftHandIndex2
										{
											OFFSET 5.48836 0.00000 0.00000
											CHANNELS 3 Zrotation Xrotation Yrotation
											JOINT LeftHandIndex3
											{
												OFFSET 3.01859 0.00000 0.00000
												CHANNELS 3 Zrotation Xrotation Yrotation
												End site
												{
													OFFSET 0.00000 0.00000 0.00000
												}
											}
										}
									}
									JOINT LeftHandMiddle1
									{
										OFFSET 14.26970 0.00000 -0.09147
										CHANNELS 3 Zrotation Xrotation Yrotation
										JOINT LeftHandMiddle2
										{
											OFFSET 6.17440 0.00000 0.00000
											CHANNELS 3 Zrotation Xrotation Yrotation
											JOINT LeftHandMiddle3
											{
												OFFSET 3.56744 0.00000 0.00000
												CHANNELS 3 Zrotation Xrotation Yrotation
												End site
												{
													OFFSET 0.00000 0.00000 0.00000
												}
											}
										}
									}
									JOINT LeftHandRing1
									{
										OFFSET 12.69180 0.00000 -3.06433
										CHANNELS 3 Zrotation Xrotation Yrotation
										JOINT LeftHandRing2
										{
											OFFSET 5.62556 0.00000 0.00000
											CHANNELS 3 Zrotation Xrotation Yrotation
											JOINT LeftHandRing3
											{
												OFFSET 3.56744 0.00000 0.00000
												CHANNELS 3 Zrotation Xrotation Yrotation
												End site
												{
													OFFSET 0.00000 0.00000 0.00000
												}
											}
										}
									}
									JOINT LeftHandPinky1
									{
										OFFSET 11.11390 0.00000 -6.03719
										CHANNELS 3 Zrotation Xrotation Yrotation
										JOINT LeftHandPinky2
										{
											OFFSET 4.52789 0.00000 0.00000
											CHANNELS 3 Zrotation Xrotation Yrotation
											JOINT LeftHandPinky3
											{
												OFFSET 2.46976 0.00000 0.00000
												CHANNELS 3 Zrotation Xrotation Yrotation
												End site
												{
													OFFSET 0.00000 0.00000 0.00000
												}
											}
										}
									}
								}
							}
						}
					}
					JOINT pCube4
					{
						OFFSET 0.00000 10.91090 1.10792
						CHANNELS 3 Zrotation Xrotation Yrotation
						End site
						{
							OFFSET 0.00000 0.00000 0.00000
						}
					}
				}
			}
		}
	}
	JOINT RightUpLeg
	{
		OFFSET -9.98441 0.00000 0.00000
		CHANNELS 3 Zrotation Xrotation Yrotation
		JOINT RightLeg
		{
			OFFSET 0.00000 -42.11790 0.00000
			CHANNELS 3 Zrotation Xrotation Yrotation
			JOINT RightFoot
			{
				OFFSET 0.00000 -45.00020 -0.00001
				CHANNELS 3 Zrotation Xrotation Yrotation
				JOINT RightForeFoot
				{
					OFFSET 0.00000 -3.74820 0.00000
					CHANNELS 3 Zrotation Xrotation Yrotation
					JOINT RightToeBase
					{
						OFFSET 0.00000 0.06325 14.43120
						CHANNELS 3 Zrotation Xrotation Yrotation
						End site
						{
							OFFSET 0.00000 0.00000 0.00000
						}
					}
				}
			}
		}
	}
	JOINT LeftUpLeg
	{
		OFFSET 9.98441 0.00000 0.00000
		CHANNELS 3 Zrotation Xrotation Yrotation
		JOINT LeftLeg
		{
			OFFSET 0.00000 -42.11800 0.00000
			CHANNELS 3 Zrotation Xrotation Yrotation
			JOINT LeftFoot
			{
				OFFSET 0.00000 -45.00070 0.00000
				CHANNELS 3 Zrotation Xrotation Yrotation
				JOINT LeftForeFoot
				{
					OFFSET 0.00000 -3.74824 0.00000
					CHANNELS 3 Zrotation Xrotation Yrotation
					JOINT LeftToeBase
					{
						OFFSET 0.00000 0.06325 14.43110
						CHANNELS 3 Zrotation Xrotation Yrotation
						End site
						{
							OFFSET 0.00000 0.00000 0.00000
						}
					}
				}
			}
		}
	}
}
MOTION
Frames: 4
Frame Time: 0.050000
-0.03637582084511135 0.03548042381779128 0.04565161205715671 0.008471981356863788 0.04410364036128259 0.009690518831657816 -3.5758880935441444 7.37536309649905 -0.7053327207491257 -0.6223387655366995 2.92308271158596 0.3784035388735701 -0.8016758832461095 0.2627229293350716 -1.8473860849665684 -0.3553504395454996 0.3933047145798494 -1.0716733469162019 -0.49222130761125776 8.759033479256923 0.39600971511494515 -0.16986942278063616 -0.6320668114149811 -1.429518100593216 -0.3103755500154411 -14.302115744071964 -0.024069629160693023 4.056599160385396 -0.12347505915043791 -10.404709437218335 70.75357992394187 -7.3443556910166485 30.997607155611465 39.2906777150269 15.329283158355034 103.84962627420825 21.001260103947494 -0.06891574673119469 -12.061037691654928 4.531160597158632 -0.14887546268752375 -1.5697978863932933 0.0409810336081978 -0.03705720524142183 -56.25833209650098 -0.02315866622604895 -0.011836526147113734 -56.27037946069636 -38.78184120590452 -0.04164518441849299 -0.001798335728160166 0.04189310884328839 0.03977436129142361 0.00029468235693535247 0.042754940063133885 -0.002181818660059113 -0.007800299072217851 -36.730702363450035 -0.028656149633980246 0.0003535911297485033 0.03535723241984288 -0.03440381658820688 -0.016481654161211896 -0.014522582321441397 0.017859434238470057 0.026184223493076267 -19.76725513921792 0.01577985467957836 0.0322649613372931 0.010116445300568124 -0.0001409961942010948 -0.03693776914621945 -0.02645799631025359 -0.049343409438915256 0.02096793841982622 24.092985455254166 0.03168677486840076 -0.005112117183430628 28.88853172108308 -0.0315142771382637 -0.024217555617027414 28.90754904749888 -0.015607053700586054 -0.0029816114056813387 -0.8477598955037703 0.4417469111567262 8.83727664446166 -59.675672933925554 16.59721152297206 -37.2118971090345 -25.12539812779785 12.780659329478828 -101.94862989780941 -17.22570137284457 1.1409979004968565 -1.860237639380783 -0.4750835096091868 0.04266576134888274 -8.117734691324445 -0.03456411505795293 -0.032568540765615876 44.585046885068834 -0.033987062966956506 0.011831566086735973 44.61022911301927 12.452165830224953 0.001214351337963325 0.007188343281122462 0.004959182299438145 0.017916193182354306 -0.011550782378965485 -0.0401493051106912 -0.002483582081687393 0.015228006137709634 11.07980179899478 -0.035433324693832334 -0.011106858187581278 0.010895497612726459 0.012924103663139494 -0.012788122181569243 0.04934066321712787 0.0034072821033575068 0.018105521702036564 4.746880302166735 0.00489143134298513 -0.043314660160395965 -0.003913825200178282 0.014196057126662468 -0.019511646105946412 0.03901516254306492 0.015728421137246772 0.0025378818657441943 -5.6050983642244425 0.014923809198680915 -0.013868159708964774 -6.705843588806565 0.03194155518360351 -0.03073667696102621 -6.762272115027672 0.016066271079155328 -0.038946254222282026 0.028260006336068053 0.03981227627082839 0.017085125603156944 8.004830199217308 3.452389977761992 -19.239992944057583 0.047661298701774386 10.391340684134688 -0.007430623855876284 -5.641018637864696 -15.653557064880566 3.1698920417673837 -0.03607464581851984 0.010148302248748275 0.04272404422370782 0.032330280263829586 4.720035169800717 0.03277813389414306 12.464502690392786 -8.23437135761719 6.901418152965586 0.036099253644792446 46.353831675179 0.03219019523953349 -4.343459105010213 -14.700113062985935 -3.8307202334341515 -0.030097010369786004 -0.013076848184432957 -0.04232614458450026 -0.009986977965636253 -10.792114162065044 0.030860094684913183 
-0.03783227885682512 0.03539124133728011 0.004990783388547284 -0.02096860286014134 0.028292480359974483 0.027674490886410802 -3.55244800706403 7.377179200015674 -0.7192200057473347 -0.6477799111808493 2.996335298851237 0.37843013857995844 -0.8099569238726657 0.3367822175549905 -1.9740450913993404 -0.19332919013579525 0.3971947269559021 -1.065531735009633 -0.5863238131089952 8.779320162849498 0.31962471477253296 -0.2063172478422127 -0.7065249949563128 -1.4029733537833597 -0.3339452939651775 -14.375747139869246 0.013447224986343948 4.047204273268999 -0.15927532459054014 -10.401739641552775 70.90313066700493 -6.952716973867915 31.621706848384335 43.047358312297256 16.247221572435425 102.91132474070999 21.16048542017933 -0.0688768011417697 -12.616341596163194 4.547706447054325 -0.13766819563295857 -1.6054504889695165 -0.02907927380606979 -0.007659969885732509 -56.20509088633551 0.02128733465253774 -0.023628533485351835 -56.214361978782414 -38.73166483661958 0.024117825701248114 0.002172950914034689 0.020307680143104283 -0.025566550862162727 -0.029734843610609452 0.011852027494790515 -0.028519753943949597 0.04912964577901793 -36.69056744993435 -0.04967624685810555 -0.02051160678380549 0.005710691852559096 -0.04758689092084511 0.02556965996668247 0.015377373039973911 -0.008141162066832948 -0.03615535633396243 -19.738385399076932 -0.022945295962924876 -0.02735429698343194 -0.031607185346215996 -0.030596728929119223 -0.0264484648069104 -0.014452517891696147 0.015541582137650192 0.03469961209736861 24.01000772237191 -0.027871317448189745 -0.04981571259854665 28.89567378157749 -0.04948736130404169 0.02246924558135836 28.84046954439026 -0.027844011047759885 -0.03344320924752458 -0.8168036376266717 0.4314373273756764 8.730463187793989 -58.7519476702632 17.445947410145823 -38.64145129737549 -26.02879295335031 14.119898446827131 -100.522064740434 -18.62985889874083 1.428232148664454 -1.9620511094761244 -0.4303569879455298 0.0666959732867429 -8.162052884159243 -0.02595814687508632 -0.03303404389686462 44.52665032170575 -0.030499406359939373 -0.0137826893663856 44.59806640114375 12.426439169746335 0.04708712257268572 0.016102918623946534 -0.008880133352143963 0.002848064681126882 0.02043918692686886 0.0009400863201762333 0.0068929458365653605 -0.03785373531526128 11.071097484864636 0.03134758873674757 0.003808674728723414 -0.045255541281557746 -0.030492692692190057 -0.01511918839701587 -0.048725065637283516 0.0342274785450368 0.005440294768137408 4.797533696831326 -0.0025852049157871833 0.021514140504666594 -0.014679014374174338 0.013519235034896954 -0.02809800829705611 0.02811604701359798 0.009114767063664538 0.04572204417473867 -5.574773787766344 0.015426445693183004 -0.02365497108964256 -6.718737818587183 -0.04258485209615492 -0.00808849525860343 -6.674256877508407 -0.013805135796501085 0.000984451044117862 -0.030746614132597105 0.04019048379553487 -0.028396776403139465 8.068680135490393 3.506298879734279 -19.173526082982292 0.00029554167172212266 10.366073494614659 0.006550013490464204 -5.585420088390654 -15.645614315282613 3.2415322978819057 -0.03934967826317758 -0.010884407386319529 -0.019021627518293734 -0.037069970638149805 4.694623561698202 0.03211402404506958 12.458136039547282 -8.269607637835158 6.854419786642455 -0.03854329194919051 46.378814245745886 -0.03125399750234959 -4.313194491995669 -14.77221154067083 -3.8617591092562993 -0.03659924714787938 -0.042108767294180734 -0.005404336167412048 -0.0004175126365249934 -10.73916460452113 0.03384407184052682 
-0.04903717024509205 0.0009605363801411199 0.030965555350291742 0.02425919655178198 -4.7387707295054074e-05 0.040131145674715055 -3.5322292029891345 7.320788117527401 -0.7378218447374776 -0.6848257659397293 3.0244980611992855 0.39754931930809706 -0.7252753401828634 0.31823029984214257 -2.0497833068978233 -0.09928490071475524 0.4310147389060235 -1.0736153137622106 -0.5991018737394118 8.74187567626981 0.2634918471161276 -0.23418658004906828 -0.7667779958076952 -1.4345271910253867 -0.3637181307076432 -14.505083983628426 0.0050207103148988685 4.157903455079085 -0.1987703658156712 -10.51986405238356 70.63709950231527 -5.828185234696292 31.45522148548624 45.0481131993532 16.441409079472006 102.25970727008637 21.24752511490248 -0.020783843643124387 -12.883628656018647 4.55677725332273 -0.1745900754385563 -1.591460712625356 -0.012975194443665522 0.007040415892853054 -56.27411991620312 -0.005168115186963782 -0.016452606075676564 -56.27870106367557 -38.74282803258624 0.02822372860678501 0.049188995767756344 0.021338593030193365 0.014294720107850193 -0.026345298210767205 0.027339487403940297 0.026253941704807472 0.04019598388944136 -36.69387145409605 -0.002108059231348912 0.03084865823710634 -0.019648531338803375 0.013371354785130225 -0.029532920786789933 0.002901013045201958 -0.030138323323231627 0.029204672032904038 -19.78040508073151 0.04392622622511766 -0.022795302873759922 0.04360258352279161 -0.01518993315148168 -0.028166202318332376 0.04264763808629337 0.020622438961160474 -0.039903369015814254 24.05573363837884 0.0006807831418938236 -0.025126894976226062 28.839767548029595 -0.041146689713191874 -0.01952527999510864 28.881896022793985 -0.035266678853446844 -0.0457023719751816 -0.8905673815117816 0.428519212532336 8.78674775396122 -57.561305033741334 18.72309422615855 -39.02209001307891 -25.273709425616165 14.460914443721787 -99.03027495109484 -19.50883238400852 1.6252121144632772 -2.09616956814119 -0.4274161452137711 0.06525618667077993 -8.142592448932062 0.017823835931202202 0.004816104463434343 44.58124571379322 -0.014154046586083591 -0.012770199738612827 44.57289234343507 12.492834756610488 0.03227895866250741 0.01267254038949665 0.04156901074240262 0.007603303077795029 -0.040904874628210824 -0.03915978882708754 0.014157885228281715 0.006350690377246982 11.106132440487723 0.04487934719136262 -0.021589667237899807 -0.028921777350384485 -0.021982372087030234 -0.010569346712281014 -0.04100225425494801 0.036400847726843405 -0.0030120417395599263 4.742438747974437 0.015682034961144016 -0.008419792415190789 -0.004541172002231457 -0.00875340590440427 -0.0027193426636492627 -0.029147608452894394 0.03726490581557864 -0.02477781808068627 -5.62915130302204 0.03807291396304855 0.025215130485397183 -6.709330377628504 -0.0006839106277760277 0.009525405018125446 -6.7227033049181415 -0.03232235758473698 0.0072137013217855135 0.017664043053230355 -0.0028747310464098297 -0.007911803544067352 8.01170015343294 3.481603738614569 -19.253279059441567 -0.04128096155783919 10.39064225335381 0.06203702313348568 -5.612991485205123 -15.652585960795998 3.1982016470884327 -0.03617602010760737 -0.02179283591465022 0.005180398221768195 0.03964181589426446 4.7318153682813895 0.021592024795176235 12.4694694466288 -8.283204135511049 6.8957130735651955 0.035362801488010895 46.40213413979224 -0.007415988876565405 -4.369881546164095 -14.70116455118655 -3.8460629169352996 0.04619534950276087 -0.033145481618480195 -0.033814131091713155 0.04409718148457228 -10.749216789249296 0.02616168364150507 
-0.024834660385172527 0.004057432276540779 -0.003448610605204 -0.01673626478826816 0.02054816314206689 0.02062283885562649 -3.3816164574907583 7.307902522832799 -0.7496631338462557 -0.6212579836339057 3.07056051578191 0.3691276895722557 -0.7392590600150621 0.4294882277726905 -2.163358931865751 -0.003984302500238311 0.4369952788588806 -1.12238996902136 -0.6036848613122351 8.805222537750728 0.2556965878435767 -0.2660283088539968 -0.8313884771207244 -1.4381677135020208 -0.3099345916089355 -14.567128293060211 -0.03191192738723271 4.548964966137761 -0.343393471229287 -10.626619578670322 69.95231282904722 -4.104371555837849 30.002764896295012 47.2177092717998 16.40806383700522 101.85879296185388 21.49952508563098 0.08110880699288583 -13.256846972895154 4.53519859838859 -0.14569445376425835 -1.580445986743543 0.026445235522089057 -0.037386228890706856 -56.20642811188407 0.00942856364312735 -0.03629090977213823 -56.19068130774774 -38.740230713461315 0.029530207845661828 0.0235701281522684 0.04785828669075682 -0.004841443738185791 0.011282268506431459 0.041452100748444416 -0.01449213375178096 0.03717593172707116 -36.68712028129517 0.0160342818714676 -0.009687659481720602 -0.030985300616507377 0.010502199975120415 -0.04648716188270829 -0.04607417388747514 0.03330223331282037 -0.003350096659753177 -19.722266147555278 -0.0039035117719242564 -0.0008431271552444008 -0.000387531482252404 -0.019399128404009668 0.02369129142729759 0.02766481559117606 0.040129889862185006 -0.011747222844900592 24.057660191163237 -0.025595807458355574 -0.008421687198942832 28.839448611994452 0.03138366794306001 -0.03167668338518502 28.876264606800962 0.008037140743545486 0.022183177238772687 -1.1140958291522542 0.35476992942499275 8.802573816530565 -56.24276096404384 20.688947896853445 -38.832228843776235 -24.18780907097622 14.470877032328387 -98.11629356168784 -20.427602185265 1.8341938810301848 -2.230918815205084 -0.4992846036777586 0.09709976535620388 -8.148869594230812 -0.014787482585536879 0.013985856495528038 44.55924502284972 -0.005649315922635809 -0.04744007681055945 44.60893782447517 12.41898818322823 0.025257775156638143 0.02931988242753093 0.036347051146912876 0.028443333468593613 0.010502975258027082 0.02843166911947156 -0.025660197441968274 -0.04418825803448421 11.099669027779921 -0.006612399227109605 -0.012234699073693555 -0.04321417751542834 0.034115633554291105 -0.0016315307348241145 -0.011197657901676232 0.03529883945819373 -0.037810431931720186 4.821538847887274 -0.018837813743605943 -0.008343895231663257 0.001689153589526374 0.04353155760006592 0.03201068721800577 0.01407064574507529 -0.006757650658664515 0.023744414534542402 -5.561227846508581 0.00798197250883115 -0.02740124395304936 -6.673665214565479 -0.008047063923209209 0.02928330722401432 -6.739248403229752 0.009439690581962083 0.02575596026345195 0.029141312626956774 -0.045177724812137034 -0.0022526900615381625 8.028176281922633 3.4597143733685947 -19.21865519413034 0.046843085137607744 10.397840806314795 0.030277126185186246 -5.660457990137113 -15.705868452691687 3.1827648663723562 0.022411837202221934 0.013874625138383494 0.03570944694481144 0.03431065055992391 4.697566018835264 -0.014519667438879195 12.45399378410102 -8.279076211362405 6.855838117662276 -0.025638417778130636 46.39000854134868 -0.01855707207140876 -4.357215278193298 -14.720814597460118 -3.8324677504666904 0.03221526943890584 -0.030774393235041587 0.021513338136474897 0.0031810981818935834 -10.790387652826322 -0.043208748725748446 
